<svg width="96" height="89" viewBox="0 0 96 89" fill="none" xmlns="http://www.w3.org/2000/svg">
<rect width="96" height="89" fill="#F5F5F5"/>
<path d="M95.5 44.5C95.5 68.7656 74.2699 88.5 48 88.5C21.7302 88.5 0.5 68.7656 0.5 44.5C0.5 20.2344 21.7302 0.5 48 0.5C74.2699 0.5 95.5 20.2344 95.5 44.5Z" fill="#ADF90C" stroke="#202101"/>
<path d="M30.752 52.96C31.776 52.96 32.5867 53.1947 33.184 53.664C33.7813 54.1227 34.08 54.7413 34.08 55.52C34.08 56.768 33.568 57.6373 32.544 58.128C33.9307 58.608 34.624 59.4933 34.624 60.784C34.624 61.7547 34.208 62.5653 33.376 63.216C32.544 63.856 31.4987 64.176 30.24 64.176C29.5787 64.176 28.592 64.1173 27.28 64L27.472 60.112L27.28 52.96H30.752ZM30.544 59.248H29.248L29.232 59.84L29.344 62.448C29.9627 62.5013 30.4373 62.528 30.768 62.528C31.3333 62.528 31.7707 62.3893 32.08 62.112C32.4 61.824 32.56 61.408 32.56 60.864C32.56 60.32 32.4 59.9147 32.08 59.648C31.76 59.3813 31.248 59.248 30.544 59.248ZM30.176 54.576H29.392L29.296 57.696H30.336C30.88 57.696 31.296 57.552 31.584 57.264C31.872 56.9653 32.016 56.544 32.016 56C32.016 55.0507 31.4027 54.576 30.176 54.576ZM39.0893 62.368C39.3986 62.368 39.7239 62.288 40.0653 62.128C40.4066 61.968 40.6733 61.808 40.8653 61.648L41.1533 61.408L41.8893 62.304C41.7826 62.4853 41.6173 62.6933 41.3933 62.928C41.1693 63.1627 40.9399 63.3653 40.7053 63.536C40.4813 63.696 40.1773 63.8453 39.7933 63.984C39.4199 64.112 39.0306 64.176 38.6253 64.176C37.7613 64.176 37.0573 63.8507 36.5133 63.2C35.9693 62.5387 35.6973 61.6907 35.6973 60.656C35.6973 59.3547 36.0759 58.2133 36.8333 57.232C37.5906 56.2507 38.4759 55.76 39.4893 55.76C40.2679 55.76 40.8706 55.9787 41.2973 56.416C41.7346 56.8533 41.9533 57.4667 41.9533 58.256C41.9533 58.7253 41.8733 59.2587 41.7133 59.856L41.3933 60.192L37.3932 60.56C37.5746 61.7653 38.1399 62.368 39.0893 62.368ZM39.0893 57.408C38.6199 57.408 38.2253 57.6 37.9053 57.984C37.5853 58.3573 37.3986 58.8373 37.3453 59.424L40.0653 59.088C40.0973 58.8427 40.1133 58.64 40.1133 58.48C40.1133 57.7653 39.7719 57.408 39.0893 57.408ZM46.2299 62.368C46.5392 62.368 46.8645 62.288 47.2059 62.128C47.5472 61.968 47.8139 61.808 48.0059 61.648L48.2939 61.408L49.0299 62.304C48.9232 62.4853 48.7579 62.6933 48.5339 62.928C48.3099 63.1627 48.0805 63.3653 47.8459 63.536C47.6219 63.696 47.3179 63.8453 46.9339 63.984C46.5605 64.112 46.1712 64.176 45.7659 64.176C44.9019 64.176 44.1979 63.8507 43.6539 63.2C43.1099 62.5387 42.8379 61.6907 42.8379 60.656C42.8379 59.3547 43.2165 58.2133 43.9739 57.232C44.7312 56.2507 45.6165 55.76 46.6299 55.76C47.4085 55.76 48.0112 55.9787 48.4379 56.416C48.8752 56.8533 49.0939 57.4667 49.0939 58.256C49.0939 58.7253 49.0139 59.2587 48.8539 59.856L48.5339 60.192L44.5339 60.56C44.7152 61.7653 45.2805 62.368 46.2299 62.368ZM46.2299 57.408C45.7605 57.408 45.3659 57.6 45.0459 57.984C44.7259 58.3573 44.5392 58.8373 44.4859 59.424L47.2059 59.088C47.2379 58.8427 47.2539 58.64 47.2539 58.48C47.2539 57.7653 46.9125 57.408 46.2299 57.408ZM55.1625 59.952C55.1625 59.216 55.0985 58.7253 54.9705 58.48C54.8425 58.2347 54.5438 58.112 54.0745 58.112C53.6052 58.112 53.0718 58.2987 52.4745 58.672V59.84L52.6505 63.6L50.4905 64L50.6825 60.112L50.4905 52.016L52.6825 51.616L52.4745 55.76V57.632C52.6345 57.4187 52.8158 57.2107 53.0185 57.008C53.2212 56.8053 53.5358 56.576 53.9625 56.32C54.3892 56.064 54.8425 55.936 55.3225 55.936C55.8132 55.936 56.2238 56.128 56.5545 56.512C56.8852 56.8853 57.0505 57.3973 57.0505 58.048L56.9545 59.84L57.1305 63.68L54.9705 64.08L55.1625 59.952ZM61.0408 55.856L60.8488 59.84L61.0248 63.6L58.8808 64L59.0728 60.112L58.8968 56.256L61.0408 55.856ZM58.7848 53.52C58.7848 53.1573 58.9234 52.8373 59.2008 52.56C59.4781 52.272 59.7981 52.128 60.1608 52.128C60.5234 52.128 60.8008 52.2293 60.9928 52.432C61.1848 52.624 61.2808 52.9173 61.2808 53.312C61.2808 53.7067 61.1421 54.048 60.8648 54.336C60.5981 54.6133 60.2834 54.752 59.9208 54.752C59.5688 54.752 59.2914 54.6347 59.0888 54.4C58.8861 54.1653 58.7848 53.872 58.7848 53.52ZM65.523 62H65.731L66.259 59.808L67.123 55.856L69.107 56.096L67.907 60.064L66.899 63.808L64.163 64.048L63.219 60.16L62.067 56.272L64.243 55.872L64.931 59.392L65.523 62ZM73.0424 62.368C73.3517 62.368 73.677 62.288 74.0184 62.128C74.3597 61.968 74.6264 61.808 74.8184 61.648L75.1064 61.408L75.8424 62.304C75.7357 62.4853 75.5704 62.6933 75.3464 62.928C75.1224 63.1627 74.893 63.3653 74.6584 63.536C74.4344 63.696 74.1304 63.8453 73.7464 63.984C73.373 64.112 72.9837 64.176 72.5784 64.176C71.7144 64.176 71.0104 63.8507 70.4664 63.2C69.9224 62.5387 69.6504 61.6907 69.6504 60.656C69.6504 59.3547 70.029 58.2133 70.7864 57.232C71.5437 56.2507 72.429 55.76 73.4424 55.76C74.221 55.76 74.8237 55.9787 75.2504 56.416C75.6877 56.8533 75.9064 57.4667 75.9064 58.256C75.9064 58.7253 75.8264 59.2587 75.6664 59.856L75.3464 60.192L71.3464 60.56C71.5277 61.7653 72.093 62.368 73.0424 62.368ZM73.0424 57.408C72.573 57.408 72.1784 57.6 71.8584 57.984C71.5384 58.3573 71.3517 58.8373 71.2984 59.424L74.0184 59.088C74.0504 58.8427 74.0664 58.64 74.0664 58.48C74.0664 57.7653 73.725 57.408 73.0424 57.408Z" fill="black"/>
<path d="M46.7232 17.4869C46.7232 16.5446 46.4437 15.6234 45.9202 14.8399C45.3967 14.0564 44.6526 13.4458 43.782 13.0852C42.9115 12.7246 41.9535 12.6302 41.0293 12.8141C40.1051 12.9979 39.2562 13.4516 38.5899 14.118C37.9236 14.7843 37.4698 15.6332 37.286 16.5574C37.1021 17.4816 37.1965 18.4396 37.5571 19.3101C37.9177 20.1807 38.5284 20.9248 39.3119 21.4483C40.0953 21.9718 41.0165 22.2513 41.9588 22.2513C43.2224 22.2513 44.4342 21.7493 45.3277 20.8558C46.2212 19.9623 46.7232 18.7505 46.7232 17.4869ZM39.5766 17.4869C39.5766 17.0157 39.7163 16.5552 39.9781 16.1634C40.2398 15.7717 40.6119 15.4663 41.0472 15.286C41.4825 15.1057 41.9614 15.0585 42.4235 15.1505C42.8856 15.2424 43.3101 15.4693 43.6433 15.8024C43.9764 16.1356 44.2033 16.56 44.2952 17.0221C44.3871 17.4842 44.34 17.9632 44.1597 18.3985C43.9793 18.8338 43.674 19.2058 43.2823 19.4676C42.8905 19.7294 42.4299 19.8691 41.9588 19.8691C41.3292 19.862 40.7274 19.6087 40.2822 19.1635C39.8369 18.7183 39.5837 18.1165 39.5766 17.4869Z" fill="black"/>
<path d="M54.21 12.7225C53.2677 12.7225 52.3466 13.0019 51.5631 13.5254C50.7796 14.049 50.1689 14.7931 49.8083 15.6636C49.4477 16.5342 49.3534 17.4922 49.5372 18.4164C49.721 19.3406 50.1748 20.1895 50.8411 20.8558C51.5074 21.5221 52.3564 21.9759 53.2806 22.1597C54.2048 22.3435 55.1627 22.2492 56.0333 21.8886C56.9039 21.528 57.648 20.9173 58.1715 20.1338C58.695 19.3503 58.9744 18.4292 58.9744 17.4869C58.9744 16.2233 58.4725 15.0115 57.579 14.118C56.6855 13.2245 55.4736 12.7225 54.21 12.7225ZM54.21 19.8691C53.7389 19.8691 53.2783 19.7294 52.8866 19.4676C52.4948 19.2058 52.1895 18.8338 52.0092 18.3985C51.8289 17.9632 51.7817 17.4842 51.8736 17.0221C51.9655 16.56 52.1924 16.1356 52.5256 15.8024C52.8587 15.4693 53.2832 15.2424 53.7453 15.1505C54.2074 15.0585 54.6864 15.1057 55.1217 15.286C55.557 15.4663 55.929 15.7717 56.1908 16.1634C56.4525 16.5552 56.5922 17.0157 56.5922 17.4869C56.5852 18.1165 56.3319 18.7183 55.8867 19.1635C55.4415 19.6087 54.8396 19.862 54.21 19.8691Z" fill="black"/>
<path d="M52.8044 25H43.8044C41.3204 25 39.3044 27.6773 39.3044 30.979V38.1586V39.3592C39.3044 42.6608 41.3204 45.3382 43.8044 45.3382H45.1544C45.3974 45.3382 45.7214 45.5543 45.8744 45.8184L47.2244 48.2076C47.8184 49.2641 48.7904 49.2641 49.3844 48.2076L50.7344 45.8184C50.9054 45.5183 51.1754 45.3382 51.4544 45.3382H52.8044C55.2884 45.3382 57.3044 42.6608 57.3044 39.3592V30.979C57.3044 27.6773 55.2884 25 52.8044 25ZM44.7044 37.006C44.2004 37.006 43.8044 36.4657 43.8044 35.8054C43.8044 35.1451 44.2094 34.6048 44.7044 34.6048C45.1994 34.6048 45.6044 35.1451 45.6044 35.8054C45.6044 36.4657 45.2084 37.006 44.7044 37.006ZM48.3044 37.006C47.8004 37.006 47.4044 36.4657 47.4044 35.8054C47.4044 35.1451 47.8094 34.6048 48.3044 34.6048C48.7994 34.6048 49.2044 35.1451 49.2044 35.8054C49.2044 36.4657 48.8084 37.006 48.3044 37.006ZM51.9044 37.006C51.4004 37.006 51.0044 36.4657 51.0044 35.8054C51.0044 35.1451 51.4094 34.6048 51.9044 34.6048C52.3994 34.6048 52.8044 35.1451 52.8044 35.8054C52.8044 36.4657 52.4084 37.006 51.9044 37.006Z" fill="#292D32"/>
<path d="M20.6277 46.1667L34.5584 41.938C35.1076 41.7703 35.6204 41.4503 36.0271 41.0216C36.4338 40.5929 36.7145 40.0763 36.8309 39.5423C36.9474 39.0083 36.8939 38.4828 36.6778 38.0376C36.4617 37.5924 36.0935 37.249 35.6234 37.0544L31.1328 35.2161C31.0269 35.1694 30.9358 35.1009 30.8648 35.0143C30.7938 34.9278 30.7444 34.825 30.7194 34.712L29.795 29.9486C29.7158 29.544 29.5274 29.1841 29.247 28.9016C28.9666 28.6192 28.603 28.4231 28.1893 28.3313C27.7757 28.2395 27.325 28.2548 26.8784 28.3758C26.4317 28.4969 26.0031 28.7198 25.6316 29.0244C25.2861 29.3126 24.9985 29.6609 24.79 30.0438L17.9179 42.8781C17.6749 43.3343 17.5578 43.824 17.5797 44.2926C17.6016 44.7613 17.7616 45.1904 18.0418 45.5321C18.3221 45.8738 18.7116 46.1146 19.1669 46.2278C19.6222 46.3409 20.1254 46.3219 20.6203 46.1728L20.6277 46.1667ZM19.489 43.4299L26.3611 30.5956C26.4532 30.4293 26.5915 30.2851 26.7574 30.1823C26.9233 30.0795 27.1089 30.023 27.2894 30.0205C27.4699 30.0179 27.6365 30.0693 27.767 30.1679C27.8975 30.2665 27.9856 30.4075 28.0196 30.572L28.9514 35.3293C28.9645 35.3922 28.9817 35.4537 29.0028 35.5133L23.8839 39.712C23.6868 39.8737 23.551 40.0934 23.5062 40.323C23.4614 40.5525 23.5114 40.7731 23.6451 40.9361C23.7788 41.0991 23.9853 41.1913 24.2192 41.1923C24.4531 41.1933 24.6952 41.103 24.8922 40.9414L30.0112 36.7427C30.0656 36.775 30.1224 36.8039 30.1816 36.8291L34.6647 38.6736C34.8194 38.739 34.9404 38.853 35.0116 39.0003C35.0827 39.1475 35.1006 39.321 35.0628 39.4975C35.0249 39.674 34.9333 39.845 34.8 39.9876C34.6667 40.1302 34.4983 40.2376 34.3172 40.2953L20.3865 44.5241C20.2224 44.5723 20.056 44.5777 19.9055 44.5397C19.7551 44.5017 19.6263 44.4217 19.5335 44.3085C19.4407 44.1954 19.3875 44.0535 19.3796 43.8985C19.3718 43.7435 19.4096 43.5813 19.489 43.4299Z" fill="black"/>
<path d="M80.241 42.893L73.6615 29.9062C73.4012 29.3945 72.9971 28.9448 72.5043 28.6186C72.0116 28.2924 71.4542 28.1055 70.9081 28.0834C70.362 28.0613 69.8538 28.205 69.4528 28.495C69.0517 28.7851 68.7774 29.2072 68.6672 29.704L67.6351 34.4452C67.6076 34.5576 67.5558 34.6592 67.4829 34.7441C67.41 34.8291 67.3173 34.8956 67.2104 34.9398L62.6793 36.6759C62.2945 36.824 61.9728 37.0719 61.7432 37.3971C61.5136 37.7222 61.3836 38.1142 61.3648 38.5375C61.3461 38.9609 61.4393 39.402 61.6359 39.821C61.8326 40.2399 62.1264 40.6233 62.4908 40.9364C62.8345 41.2267 63.2274 41.4496 63.6406 41.5886L77.4719 46.1319C77.9633 46.2922 78.4659 46.3226 78.9237 46.2198C79.3814 46.117 79.7763 45.885 80.0642 45.5498C80.3522 45.2145 80.5219 44.7891 80.5544 44.3211C80.5869 43.8531 80.4809 43.3608 80.2483 42.8993L80.241 42.893ZM77.7431 44.4889L63.9117 39.9456C63.732 39.8837 63.566 39.7726 63.436 39.627C63.306 39.4814 63.2182 39.3084 63.1844 39.1311C63.1506 38.9538 63.1724 38.7807 63.2469 38.6351C63.3213 38.4895 63.4449 38.3783 63.601 38.3164L68.1248 36.574C68.1845 36.5501 68.242 36.5225 68.2971 36.4914L73.3196 40.8051C73.5129 40.9711 73.7529 41.0668 73.9868 41.0711C74.2206 41.0754 74.4292 40.988 74.5665 40.828C74.7039 40.6681 74.7589 40.4487 74.7193 40.2182C74.6797 39.9877 74.5489 39.7649 74.3556 39.5988L69.333 35.2852C69.3555 35.2261 69.3741 35.165 69.3887 35.1024L70.428 30.3674C70.4657 30.2037 70.557 30.0648 70.6897 29.9692C70.8224 29.8736 70.9902 29.8259 71.1705 29.8326C71.3509 29.8392 71.5352 29.8999 71.6987 30.0064C71.8623 30.113 71.9972 30.2603 72.0855 30.4286L78.6651 43.4154C78.741 43.5685 78.7752 43.7315 78.7638 43.8863C78.7524 44.0411 78.696 44.1817 78.6006 44.2927C78.5053 44.4037 78.3748 44.4808 78.2235 44.5154C78.0722 44.55 77.9059 44.5408 77.7431 44.4889Z" fill="black"/>
</svg>
