<svg width="173" height="49" viewBox="0 0 173 49" fill="none" xmlns="http://www.w3.org/2000/svg">
<path d="M81.504 16.92C83.552 16.92 85.1733 17.3893 86.368 18.328C87.5627 19.2453 88.16 20.4827 88.16 22.04C88.16 24.536 87.136 26.2747 85.088 27.256C87.8613 28.216 89.248 29.9867 89.248 32.568C89.248 34.5093 88.416 36.1307 86.752 37.432C85.088 38.712 82.9973 39.352 80.48 39.352C79.1573 39.352 77.184 39.2347 74.56 39L74.944 31.224L74.56 16.92H81.504ZM81.088 29.496H78.496L78.464 30.68L78.688 35.896C79.9253 36.0027 80.8747 36.056 81.536 36.056C82.6667 36.056 83.5413 35.7787 84.16 35.224C84.8 34.648 85.12 33.816 85.12 32.728C85.12 31.64 84.8 30.8293 84.16 30.296C83.52 29.7627 82.496 29.496 81.088 29.496ZM80.352 20.152H78.784L78.592 26.392H80.672C81.76 26.392 82.592 26.104 83.168 25.528C83.744 24.9307 84.032 24.088 84.032 23C84.032 21.1013 82.8053 20.152 80.352 20.152ZM98.1785 35.736C98.7972 35.736 99.4478 35.576 100.131 35.256C100.813 34.936 101.347 34.616 101.731 34.296L102.307 33.816L103.779 35.608C103.565 35.9707 103.235 36.3867 102.787 36.856C102.339 37.3253 101.88 37.7307 101.411 38.072C100.963 38.392 100.355 38.6907 99.5865 38.968C98.8398 39.224 98.0612 39.352 97.2505 39.352C95.5225 39.352 94.1145 38.7013 93.0265 37.4C91.9385 36.0773 91.3945 34.3813 91.3945 32.312C91.3945 29.7093 92.1518 27.4267 93.6665 25.464C95.1812 23.5013 96.9518 22.52 98.9785 22.52C100.536 22.52 101.741 22.9573 102.595 23.832C103.469 24.7067 103.907 25.9333 103.907 27.512C103.907 28.4507 103.747 29.5173 103.427 30.712L102.787 31.384L94.7865 32.12C95.1492 34.5307 96.2798 35.736 98.1785 35.736ZM98.1785 25.816C97.2398 25.816 96.4505 26.2 95.8105 26.968C95.1705 27.7147 94.7972 28.6747 94.6905 29.848L100.131 29.176C100.195 28.6853 100.227 28.28 100.227 27.96C100.227 26.5307 99.5438 25.816 98.1785 25.816ZM112.46 35.736C113.078 35.736 113.729 35.576 114.412 35.256C115.094 34.936 115.628 34.616 116.012 34.296L116.588 33.816L118.06 35.608C117.846 35.9707 117.516 36.3867 117.068 36.856C116.62 37.3253 116.161 37.7307 115.692 38.072C115.244 38.392 114.636 38.6907 113.868 38.968C113.121 39.224 112.342 39.352 111.532 39.352C109.804 39.352 108.396 38.7013 107.308 37.4C106.22 36.0773 105.676 34.3813 105.676 32.312C105.676 29.7093 106.433 27.4267 107.948 25.464C109.462 23.5013 111.233 22.52 113.26 22.52C114.817 22.52 116.022 22.9573 116.876 23.832C117.75 24.7067 118.188 25.9333 118.188 27.512C118.188 28.4507 118.028 29.5173 117.708 30.712L117.068 31.384L109.068 32.12C109.43 34.5307 110.561 35.736 112.46 35.736ZM112.46 25.816C111.521 25.816 110.732 26.2 110.092 26.968C109.452 27.7147 109.078 28.6747 108.972 29.848L114.412 29.176C114.476 28.6853 114.508 28.28 114.508 27.96C114.508 26.5307 113.825 25.816 112.46 25.816ZM130.325 30.904C130.325 29.432 130.197 28.4507 129.941 27.96C129.685 27.4693 129.088 27.224 128.149 27.224C127.21 27.224 126.144 27.5973 124.949 28.344V30.68L125.301 38.2L120.981 39L121.365 31.224L120.981 15.032L125.365 14.232L124.949 22.52V26.264C125.269 25.8373 125.632 25.4213 126.037 25.016C126.442 24.6107 127.072 24.152 127.925 23.64C128.778 23.128 129.685 22.872 130.645 22.872C131.626 22.872 132.448 23.256 133.109 24.024C133.77 24.7707 134.101 25.7947 134.101 27.096L133.909 30.68L134.261 38.36L129.941 39.16L130.325 30.904ZM142.082 22.712L141.698 30.68L142.05 38.2L137.762 39L138.146 31.224L137.794 23.512L142.082 22.712ZM137.57 18.04C137.57 17.3147 137.847 16.6747 138.402 16.12C138.956 15.544 139.596 15.256 140.322 15.256C141.047 15.256 141.602 15.4587 141.986 15.864C142.37 16.248 142.562 16.8347 142.562 17.624C142.562 18.4133 142.284 19.096 141.73 19.672C141.196 20.2267 140.567 20.504 139.842 20.504C139.138 20.504 138.583 20.2693 138.178 19.8C137.772 19.3307 137.57 18.744 137.57 18.04ZM151.046 35H151.462L152.518 30.616L154.246 22.712L158.214 23.192L155.814 31.128L153.798 38.616L148.326 39.096L146.438 31.32L144.134 23.544L148.486 22.744L149.862 29.784L151.046 35ZM166.085 35.736C166.703 35.736 167.354 35.576 168.037 35.256C168.719 34.936 169.253 34.616 169.637 34.296L170.213 33.816L171.685 35.608C171.471 35.9707 171.141 36.3867 170.693 36.856C170.245 37.3253 169.786 37.7307 169.317 38.072C168.869 38.392 168.261 38.6907 167.493 38.968C166.746 39.224 165.967 39.352 165.157 39.352C163.429 39.352 162.021 38.7013 160.933 37.4C159.845 36.0773 159.301 34.3813 159.301 32.312C159.301 29.7093 160.058 27.4267 161.573 25.464C163.087 23.5013 164.858 22.52 166.885 22.52C168.442 22.52 169.647 22.9573 170.501 23.832C171.375 24.7067 171.813 25.9333 171.813 27.512C171.813 28.4507 171.653 29.5173 171.333 30.712L170.693 31.384L162.693 32.12C163.055 34.5307 164.186 35.736 166.085 35.736ZM166.085 25.816C165.146 25.816 164.357 26.2 163.717 26.968C163.077 27.7147 162.703 28.6747 162.597 29.848L168.037 29.176C168.101 28.6853 168.133 28.28 168.133 27.96C168.133 26.5307 167.45 25.816 166.085 25.816Z" fill="black"/>
<path d="M33.7232 7.48688C33.7232 6.54458 33.4437 5.62343 32.9202 4.83994C32.3967 4.05644 31.6526 3.44578 30.782 3.08517C29.9115 2.72457 28.9535 2.63022 28.0293 2.81405C27.1051 2.99789 26.2562 3.45165 25.5899 4.11796C24.9236 4.78427 24.4698 5.6332 24.286 6.5574C24.1021 7.4816 24.1965 8.43955 24.5571 9.31013C24.9177 10.1807 25.5284 10.9248 26.3119 11.4483C27.0953 11.9718 28.0165 12.2513 28.9588 12.2513C30.2224 12.2513 31.4342 11.7493 32.3277 10.8558C33.2212 9.96231 33.7232 8.75047 33.7232 7.48688ZM26.5766 7.48688C26.5766 7.01573 26.7163 6.55516 26.9781 6.16341C27.2398 5.77166 27.6119 5.46633 28.0472 5.28603C28.4825 5.10572 28.9614 5.05855 29.4235 5.15047C29.8856 5.24238 30.3101 5.46927 30.6433 5.80242C30.9764 6.13558 31.2033 6.56004 31.2952 7.02214C31.3871 7.48424 31.34 7.96322 31.1596 8.3985C30.9793 8.83379 30.674 9.20584 30.2823 9.4676C29.8905 9.72936 29.4299 9.86907 28.9588 9.86907C28.3292 9.86199 27.7274 9.60874 27.2822 9.16352C26.8369 8.7183 26.5837 8.11648 26.5766 7.48688Z" fill="black"/>
<path d="M41.21 2.7225C40.2677 2.7225 39.3466 3.00193 38.5631 3.52545C37.7796 4.04896 37.1689 4.79306 36.8083 5.66363C36.4477 6.53421 36.3534 7.49216 36.5372 8.41636C36.721 9.34056 37.1748 10.1895 37.8411 10.8558C38.5074 11.5221 39.3564 11.9759 40.2806 12.1597C41.2048 12.3435 42.1627 12.2492 43.0333 11.8886C43.9039 11.528 44.648 10.9173 45.1715 10.1338C45.695 9.35033 45.9744 8.42918 45.9744 7.48688C45.9744 6.22329 45.4725 5.01145 44.579 4.11796C43.6855 3.22446 42.4736 2.7225 41.21 2.7225ZM41.21 9.86907C40.7389 9.86907 40.2783 9.72935 39.8866 9.46759C39.4948 9.20584 39.1895 8.83379 39.0092 8.3985C38.8289 7.96321 38.7817 7.48424 38.8736 7.02214C38.9655 6.56004 39.1924 6.13557 39.5256 5.80242C39.8587 5.46926 40.2832 5.24238 40.7453 5.15046C41.2074 5.05855 41.6864 5.10572 42.1217 5.28602C42.557 5.46633 42.929 5.77166 43.1908 6.16341C43.4525 6.55515 43.5922 7.01573 43.5922 7.48688C43.5852 8.11648 43.3319 8.7183 42.8867 9.16352C42.4415 9.60874 41.8396 9.86199 41.21 9.86907Z" fill="black"/>
<path d="M39.8044 15H30.8044C28.3204 15 26.3044 17.6773 26.3044 20.979V28.1586V29.3592C26.3044 32.6608 28.3204 35.3382 30.8044 35.3382H32.1544C32.3974 35.3382 32.7214 35.5543 32.8744 35.8184L34.2244 38.2076C34.8184 39.2641 35.7904 39.2641 36.3844 38.2076L37.7344 35.8184C37.9054 35.5183 38.1754 35.3382 38.4544 35.3382H39.8044C42.2884 35.3382 44.3044 32.6608 44.3044 29.3592V20.979C44.3044 17.6773 42.2884 15 39.8044 15ZM31.7044 27.006C31.2004 27.006 30.8044 26.4657 30.8044 25.8054C30.8044 25.1451 31.2094 24.6048 31.7044 24.6048C32.1994 24.6048 32.6044 25.1451 32.6044 25.8054C32.6044 26.4657 32.2084 27.006 31.7044 27.006ZM35.3044 27.006C34.8004 27.006 34.4044 26.4657 34.4044 25.8054C34.4044 25.1451 34.8094 24.6048 35.3044 24.6048C35.7994 24.6048 36.2044 25.1451 36.2044 25.8054C36.2044 26.4657 35.8084 27.006 35.3044 27.006ZM38.9044 27.006C38.4004 27.006 38.0044 26.4657 38.0044 25.8054C38.0044 25.1451 38.4094 24.6048 38.9044 24.6048C39.3994 24.6048 39.8044 25.1451 39.8044 25.8054C39.8044 26.4657 39.4084 27.006 38.9044 27.006Z" fill="#292D32"/>
<path d="M7.62772 36.1667L21.5584 31.938C22.1076 31.7703 22.6204 31.4503 23.0271 31.0216C23.4338 30.5929 23.7145 30.0763 23.8309 29.5423C23.9474 29.0083 23.8939 28.4828 23.6778 28.0376C23.4617 27.5924 23.0935 27.249 22.6234 27.0544L18.1328 25.2161C18.0269 25.1694 17.9358 25.1009 17.8648 25.0143C17.7938 24.9278 17.7444 24.825 17.7194 24.712L16.795 19.9486C16.7158 19.544 16.5274 19.1841 16.247 18.9016C15.9666 18.6192 15.603 18.4231 15.1894 18.3313C14.7757 18.2395 14.325 18.2548 13.8784 18.3758C13.4317 18.4969 13.0031 18.7198 12.6316 19.0244C12.2861 19.3126 11.9985 19.6609 11.79 20.0438L4.91786 32.8781C4.67486 33.3343 4.55778 33.824 4.57967 34.2926C4.60156 34.7613 4.76157 35.1904 5.04184 35.5321C5.32212 35.8738 5.71163 36.1146 6.16692 36.2278C6.62222 36.3409 7.12538 36.3219 7.62029 36.1728L7.62772 36.1667ZM6.48901 33.4299L13.3611 20.5956C13.4532 20.4293 13.5915 20.2851 13.7574 20.1823C13.9233 20.0795 14.1089 20.023 14.2894 20.0205C14.4699 20.0179 14.6365 20.0693 14.767 20.1679C14.8975 20.2665 14.9857 20.4075 15.0196 20.572L15.9514 25.3293C15.9645 25.3922 15.9817 25.4537 16.0029 25.5133L10.8839 29.712C10.6868 29.8737 10.551 30.0934 10.5062 30.323C10.4614 30.5525 10.5114 30.7731 10.6451 30.9361C10.7788 31.0991 10.9853 31.1913 11.2192 31.1923C11.4531 31.1933 11.6952 31.103 11.8922 30.9414L17.0112 26.7427C17.0656 26.775 17.1224 26.8039 17.1816 26.8291L21.6647 28.6736C21.8194 28.739 21.9404 28.853 22.0116 29.0003C22.0827 29.1475 22.1006 29.321 22.0628 29.4975C22.0249 29.674 21.9333 29.845 21.8 29.9876C21.6667 30.1302 21.4983 30.2376 21.3172 30.2953L7.38646 34.5241C7.22245 34.5723 7.05604 34.5777 6.90555 34.5397C6.75506 34.5017 6.62633 34.4217 6.53354 34.3085C6.44074 34.1954 6.38749 34.0535 6.37963 33.8985C6.37177 33.7435 6.40962 33.5813 6.48901 33.4299Z" fill="black"/>
<path d="M67.241 32.893L60.6615 19.9062C60.4012 19.3945 59.9971 18.9448 59.5043 18.6186C59.0116 18.2924 58.4542 18.1055 57.9081 18.0834C57.362 18.0613 56.8538 18.205 56.4528 18.495C56.0517 18.7851 55.7774 19.2072 55.6672 19.704L54.6351 24.4452C54.6076 24.5576 54.5558 24.6592 54.4829 24.7441C54.41 24.8291 54.3173 24.8956 54.2104 24.9398L49.6793 26.6759C49.2945 26.824 48.9728 27.0719 48.7432 27.3971C48.5136 27.7222 48.3836 28.1142 48.3648 28.5375C48.3461 28.9609 48.4393 29.402 48.6359 29.821C48.8326 30.2399 49.1264 30.6233 49.4908 30.9364C49.8345 31.2267 50.2274 31.4496 50.6406 31.5886L64.4719 36.1319C64.9633 36.2922 65.4659 36.3226 65.9237 36.2198C66.3814 36.117 66.7763 35.885 67.0642 35.5498C67.3522 35.2145 67.5219 34.7891 67.5544 34.3211C67.5869 33.8531 67.4809 33.3608 67.2483 32.8993L67.241 32.893ZM64.7431 34.4889L50.9117 29.9456C50.732 29.8837 50.566 29.7726 50.436 29.627C50.306 29.4814 50.2182 29.3084 50.1844 29.1311C50.1506 28.9538 50.1724 28.7807 50.2469 28.6351C50.3213 28.4895 50.4449 28.3783 50.601 28.3164L55.1248 26.574C55.1845 26.5501 55.242 26.5225 55.2971 26.4914L60.3196 30.8051C60.5129 30.9711 60.7529 31.0668 60.9868 31.0711C61.2206 31.0754 61.4292 30.988 61.5665 30.828C61.7039 30.6681 61.7589 30.4487 61.7193 30.2182C61.6797 29.9877 61.5489 29.7649 61.3556 29.5988L56.333 25.2852C56.3555 25.2261 56.3741 25.165 56.3887 25.1024L57.428 20.3674C57.4657 20.2037 57.557 20.0648 57.6897 19.9692C57.8224 19.8736 57.9902 19.8259 58.1705 19.8326C58.3509 19.8392 58.5352 19.8999 58.6987 20.0064C58.8623 20.113 58.9972 20.2603 59.0855 20.4286L65.6651 33.4154C65.741 33.5685 65.7752 33.7315 65.7638 33.8863C65.7524 34.0411 65.696 34.1817 65.6006 34.2927C65.5053 34.4037 65.3748 34.4808 65.2235 34.5154C65.0722 34.55 64.9059 34.5408 64.7431 34.4889Z" fill="black"/>
</svg>
