<svg width="1299" height="625" viewBox="0 0 1299 625" fill="none" xmlns="http://www.w3.org/2000/svg">
<path d="M829.778 62.5447L934.5 4.5715L1039.22 62.5447V178.455L934.5 236.428L829.778 178.455V62.5447Z" stroke="black"/>
<path d="M1055.78 62.5447L1160.5 4.5715L1265.22 62.5447V178.455L1160.5 236.428L1055.78 178.455V62.5447Z" stroke="black"/>
<path d="M827.778 433.545L932.5 375.572L1037.22 433.545V549.455L932.5 607.428L827.778 549.455V433.545Z" stroke="black"/>
<path d="M707.778 241.545L812.5 183.572L917.222 241.545V357.455L812.5 415.428L707.778 357.455V241.545Z" stroke="black"/>
<path d="M949.778 253.545L1054.5 195.572L1159.22 253.545V369.455L1054.5 427.428L949.778 369.455V253.545Z" stroke="black"/>
<path d="M1072.78 433.545L1177.5 375.572L1282.22 433.545V549.455L1177.5 607.428L1072.78 549.455V433.545Z" stroke="black"/>
<path d="M141.82 70.8286L247.538 14.6919L351.232 74.4839L349.209 190.377L243.491 246.514L139.797 186.722L141.82 70.8286Z" stroke="black"/>
<path d="M367.82 70.8286L473.538 14.6919L577.232 74.4839L575.209 190.377L469.491 246.514L365.797 186.722L367.82 70.8286Z" stroke="black"/>
<path d="M139.82 441.829L245.538 385.692L349.232 445.484L347.209 561.377L241.491 617.514L137.797 557.722L139.82 441.829Z" stroke="black"/>
<path d="M19.82 249.829L125.538 193.692L229.232 253.484L227.209 369.377L121.491 425.514L17.7971 365.722L19.82 249.829Z" stroke="black"/>
<path d="M261.82 261.829L367.538 205.692L471.232 265.484L469.209 381.377L363.491 437.514L259.797 377.722L261.82 261.829Z" stroke="black"/>
<path d="M489.82 249.829L595.538 193.692L699.232 253.484L697.209 369.377L591.491 425.514L487.797 365.722L489.82 249.829Z" stroke="black"/>
<path d="M384.82 441.829L490.538 385.692L594.232 445.484L592.209 561.377L486.491 617.514L382.797 557.722L384.82 441.829Z" stroke="black"/>
<path d="M595.82 58.8286L701.538 2.69188L805.232 62.4839L803.209 178.377L697.491 234.514L593.797 174.722L595.82 58.8286Z" stroke="black"/>
<path d="M605.82 445.829L711.538 389.692L815.232 449.484L813.209 565.377L707.491 621.514L603.797 561.722L605.82 445.829Z" stroke="black"/>
</svg>
