<svg width="271" height="343" viewBox="0 0 271 343" fill="none" xmlns="http://www.w3.org/2000/svg">
<rect x="1.5" y="7.5" width="81" height="289" rx="40.5" stroke="black" stroke-width="3"/>
<path d="M57 53C57 62.4725 49.9803 70 41.5 70C33.0197 70 26 62.4725 26 53C26 43.5275 33.0197 36 41.5 36C49.9803 36 57 43.5275 57 53Z" fill="#170F0F" stroke="black" stroke-width="2"/>
<rect x="40.5" y="87.5" width="2" height="136" fill="black" stroke="black"/>
<mask id="path-4-inside-1_10_15" fill="white">
<path d="M84 35C93.9805 35 103.863 36.6813 113.084 39.9478C122.305 43.2144 130.683 48.0023 137.74 54.0381C144.797 60.0739 150.395 67.2394 154.215 75.1256C158.034 83.0118 160 91.4641 160 100C160 108.536 158.034 116.988 154.215 124.874C150.395 132.761 144.797 139.926 137.74 145.962C130.683 151.998 122.305 156.786 113.084 160.052C103.863 163.319 93.9804 165 83.9999 165L84 100L84 35Z"/>
</mask>
<path d="M84 35C93.9805 35 103.863 36.6813 113.084 39.9478C122.305 43.2144 130.683 48.0023 137.74 54.0381C144.797 60.0739 150.395 67.2394 154.215 75.1256C158.034 83.0118 160 91.4641 160 100C160 108.536 158.034 116.988 154.215 124.874C150.395 132.761 144.797 139.926 137.74 145.962C130.683 151.998 122.305 156.786 113.084 160.052C103.863 163.319 93.9804 165 83.9999 165L84 100L84 35Z" stroke="black" stroke-width="6" stroke-linecap="round" stroke-linejoin="round" stroke-dasharray="30 12 12 12" mask="url(#path-4-inside-1_10_15)"/>
<mask id="path-5-inside-2_10_15" fill="white">
<path d="M84 143C93.9805 143 103.863 144.681 113.084 147.948C122.305 151.214 130.683 156.002 137.74 162.038C144.797 168.074 150.395 175.239 154.215 183.126C158.034 191.012 160 199.464 160 208C160 216.536 158.034 224.988 154.215 232.874C150.395 240.761 144.797 247.926 137.74 253.962C130.683 259.998 122.305 264.786 113.084 268.052C103.863 271.319 93.9804 273 83.9999 273L84 208L84 143Z"/>
</mask>
<path d="M84 143C93.9805 143 103.863 144.681 113.084 147.948C122.305 151.214 130.683 156.002 137.74 162.038C144.797 168.074 150.395 175.239 154.215 183.126C158.034 191.012 160 199.464 160 208C160 216.536 158.034 224.988 154.215 232.874C150.395 240.761 144.797 247.926 137.74 253.962C130.683 259.998 122.305 264.786 113.084 268.052C103.863 271.319 93.9804 273 83.9999 273L84 208L84 143Z" stroke="black" stroke-width="6" stroke-linecap="round" stroke-linejoin="round" stroke-dasharray="30 12 12 12" mask="url(#path-5-inside-2_10_15)"/>
<path d="M111.103 169.781L77.0847 195.112C62.2927 206.126 41.2594 195.644 41.1473 177.202L40.8419 126.956C40.7299 108.514 61.6342 97.7766 76.559 108.61L110.883 133.526C123.167 142.443 123.278 160.715 111.103 169.781Z" fill="black" stroke="black"/>
<path d="M87 38.0001C87 38.0001 143.5 28.0001 158.5 8.00015C173.5 -11.9999 158.5 28.0001 158.5 28.0001L207 19.5001L192 51.5001L252 94.5001C196.997 110.36 168.092 121.86 127 156.5" stroke="black" stroke-width="3"/>
<path d="M112.285 154.098C112.285 154.098 165.393 175.817 188.756 166.919C212.119 158.021 178.075 183.828 178.075 183.828L223.619 202.543L193.848 221.587L221.611 289.984C166.639 274.019 136.059 268.305 82.8181 275.646" stroke="black" stroke-width="3"/>
</svg>
